# xmcd
# 
# Track frame offsets:
#     182
#     16140
#     30482
#     48957
#     63057
#     75307
#     87477
#     100270
#     113407
#     126570
#     139945
#     156207
#     171470
#     187732
#     203495
#     222495
#     238220
#     254507
#     270657
#     289382
#     309907
#     328982
# 
# Disc length: 4561
# 
# Revision: 1
# Processed by: cddbd v1.5.2PL0 Copyright (c) Steve Scherf et al.
# Submitted via: BonkEnc v1.0.8
# 
DISCID=3811cf16
DTITLE=Willy DeVille - Anthologie
DYEAR=1994
DGENRE=Blues
TTITLE0=Spanish Stroll
TTITLE1=Cadillac Walk
TTITLE2=Just Your Friends
TTITLE3=Savoir Faire
TTITLE4=This Must Be The Night
TTITLE5=You Just Keep Holding On
TTITLE6=Bad Boy
TTITLE7=Heaven Stool Still
TTITLE8=Maybe Tomorrow
TTITLE9=You Better Move On
TTITLE10=Love and Emotion
TTITLE11=Each Word's A Beat Of My Heart
TTITLE12=Demasiado Corazon
TTITLE13=Could You Would You
TTITLE14=Italian Shoes
TTITLE15=Hello My Lover
TTITLE16=Key To My Heart
TTITLE17=All In The Name Of Love
TTITLE18=Hey Joe
TTITLE19=I Call Your Name
TTITLE20=Stand By Me
TTITLE21=Heat Of The Moment
EXTD=YEAR: 1994
EXTT0=
EXTT1=
EXTT2=
EXTT3=
EXTT4=
EXTT5=
EXTT6=
EXTT7=
EXTT8=
EXTT9=
EXTT10=
EXTT11=
EXTT12=
EXTT13=
EXTT14=
EXTT15=
EXTT16=
EXTT17=
EXTT18=
EXTT19=
EXTT20=
EXTT21=
PLAYORDER=
